<svg id="visual" viewBox="0 0 900 600" width="900" height="600" xmlns="http://www.w3.org/2000/svg" xmlns:xlink="http://www.w3.org/1999/xlink" version="1.1"><path d="M0 141L11.5 144.2C23 147.3 46 153.7 69 158.5C92 163.3 115 166.7 138.2 172.8C161.3 179 184.7 188 207.8 200.5C231 213 254 229 277 233.3C300 237.7 323 230.3 346 223.5C369 216.7 392 210.3 415.2 191.2C438.3 172 461.7 140 484.8 147.2C508 154.3 531 200.7 554 203.7C577 206.7 600 166.3 623 156.5C646 146.7 669 167.3 692.2 177.7C715.3 188 738.7 188 761.8 174.5C785 161 808 134 831 128.8C854 123.7 877 140.3 888.5 148.7L900 157L900 0L888.5 0C877 0 854 0 831 0C808 0 785 0 761.8 0C738.7 0 715.3 0 692.2 0C669 0 646 0 623 0C600 0 577 0 554 0C531 0 508 0 484.8 0C461.7 0 438.3 0 415.2 0C392 0 369 0 346 0C323 0 300 0 277 0C254 0 231 0 207.8 0C184.7 0 161.3 0 138.2 0C115 0 92 0 69 0C46 0 23 0 11.5 0L0 0Z" fill="#FF0066" stroke-linecap="round" stroke-linejoin="miter"></path></svg>